<svg width="96" height="40" viewBox="0 0 96 40" fill="none" xmlns="http://www.w3.org/2000/svg">
<path d="M16.2047 6.42426V8.35269C18.1121 8.35269 19.899 8.8348 21.5654 9.79902C23.1516 10.7432 24.4165 12.0087 25.3601 13.5956C26.3238 15.2629 26.8057 17.0507 26.8057 18.9591H28.7332C28.7332 16.6892 28.1609 14.5799 27.0165 12.6314C25.9122 10.7432 24.4165 9.2466 22.5292 8.14177C20.5816 6.99676 18.4735 6.42426 16.2047 6.42426ZM6.23611 9.31691C5.69401 9.31691 5.22219 9.48766 4.82064 9.82915L1.71863 12.993L1.80898 12.9327C1.30704 13.3546 0.97576 13.8769 0.815138 14.4996C0.674594 15.1223 0.71475 15.7249 0.935604 16.3075C1.49778 17.8743 2.25069 19.4814 3.19434 21.1286C4.51947 23.3985 6.09557 25.4374 7.92264 27.2453C10.854 30.1983 14.4981 32.5285 18.8549 34.2359H18.8851C19.4673 34.4368 20.0496 34.477 20.6318 34.3565C21.2341 34.2359 21.7662 33.9748 22.228 33.573L25.2698 30.5297C25.6713 30.128 25.8721 29.6358 25.8721 29.0533C25.8721 28.4506 25.6713 27.9484 25.2698 27.5467L21.3245 23.5693C20.9229 23.1675 20.421 22.9666 19.8187 22.9666C19.2163 22.9666 18.7144 23.1675 18.3128 23.5693L16.4155 25.4977C14.8896 24.7745 13.5645 23.8806 12.4401 22.816C11.3158 21.7312 10.4223 20.4155 9.75975 18.8687L11.6872 16.9403C12.1088 16.4983 12.3196 15.976 12.3196 15.3734C12.3196 14.7507 12.0787 14.2485 11.5969 13.8668L11.6872 13.9572L7.65159 9.82915C7.25003 9.48766 6.77821 9.31691 6.23611 9.31691ZM16.2047 10.2811V12.2096C17.4294 12.2096 18.5538 12.5109 19.5777 13.1135C20.6218 13.7162 21.445 14.5398 22.0473 15.5843C22.6496 16.6088 22.9508 17.7337 22.9508 18.9591H24.8782C24.8782 17.3922 24.4867 15.9359 23.7037 14.59C22.9207 13.2843 21.8766 12.2397 20.5716 11.4563C19.2264 10.6728 17.7707 10.2811 16.2047 10.2811ZM6.23611 11.2453C6.29635 11.2453 6.36662 11.2755 6.44693 11.3357L10.3922 15.3734C10.4123 15.4538 10.3922 15.5241 10.332 15.5843L7.47089 18.4167L7.6817 19.0194L8.07322 19.8631C8.39446 20.546 8.7659 21.2089 9.18753 21.8518C9.76978 22.7557 10.4123 23.5291 11.115 24.1719C12.0586 25.0959 13.193 25.9396 14.5182 26.703C15.1807 27.0846 15.7429 27.3659 16.2047 27.5467L16.807 27.8179L19.7283 24.8951C19.7685 24.8549 19.7986 24.8348 19.8187 24.8348C19.8387 24.8348 19.8689 24.8549 19.909 24.8951L23.9747 28.9629C24.0149 29.003 24.035 29.0332 24.035 29.0533C24.035 29.0533 24.0149 29.0733 23.9747 29.1135L20.9631 32.0966C20.5214 32.4782 20.0395 32.5787 19.5175 32.3979C15.4217 30.8109 12.0084 28.6415 9.27788 25.8894C7.59136 24.202 6.11565 22.2836 4.85075 20.1342C3.94726 18.5875 3.24454 17.0909 2.7426 15.6446V15.6145C2.66228 15.4337 2.65225 15.2227 2.71248 14.9817C2.77271 14.7206 2.88314 14.5197 3.04376 14.3791L6.0253 11.3357C6.08553 11.2755 6.1558 11.2453 6.23611 11.2453ZM16.2047 14.138V16.0664C17.0078 16.0664 17.6904 16.3477 18.2526 16.9101C18.8148 17.4726 19.0959 18.1556 19.0959 18.9591H21.0233C21.0233 18.0953 20.8025 17.2918 20.3608 16.5485C19.9391 15.8053 19.3569 15.2227 18.614 14.8009C17.8711 14.359 17.068 14.138 16.2047 14.138Z" fill="black"/>
<path d="M45.222 15V5.9H48.966C49.772 5.9 50.461 6.03 51.033 6.29C51.6137 6.55 52.06 6.92267 52.372 7.408C52.684 7.89333 52.84 8.46967 52.84 9.137C52.84 9.80433 52.684 10.3807 52.372 10.866C52.06 11.3513 51.6137 11.724 51.033 11.984C50.461 12.244 49.772 12.374 48.966 12.374H46.158L46.912 11.581V15H45.222ZM46.912 11.763L46.158 10.944H48.888C49.6333 10.944 50.1923 10.788 50.565 10.476C50.9463 10.1553 51.137 9.709 51.137 9.137C51.137 8.55633 50.9463 8.11 50.565 7.798C50.1923 7.486 49.6333 7.33 48.888 7.33H46.158L46.912 6.498V11.763ZM58.6976 7.98C59.2523 7.98 59.7463 8.08833 60.1796 8.305C60.6216 8.52167 60.9683 8.85533 61.2196 9.306C61.471 9.748 61.5966 10.32 61.5966 11.022V15H59.9716V11.23C59.9716 10.6147 59.8243 10.1553 59.5296 9.852C59.2436 9.54867 58.8406 9.397 58.3206 9.397C57.9393 9.397 57.6013 9.475 57.3066 9.631C57.012 9.787 56.7823 10.021 56.6176 10.333C56.4616 10.6363 56.3836 11.022 56.3836 11.49V15H54.7586V5.354H56.3836V9.93L56.0326 9.358C56.2753 8.916 56.6263 8.578 57.0856 8.344C57.5536 8.10133 58.091 7.98 58.6976 7.98ZM67.0507 15.091C66.3401 15.091 65.7074 14.9393 65.1527 14.636C64.5981 14.324 64.1604 13.8993 63.8397 13.362C63.5191 12.8247 63.3587 12.2137 63.3587 11.529C63.3587 10.8357 63.5191 10.2247 63.8397 9.696C64.1604 9.15867 64.5981 8.73833 65.1527 8.435C65.7074 8.13167 66.3401 7.98 67.0507 7.98C67.7701 7.98 68.4071 8.13167 68.9617 8.435C69.5251 8.73833 69.9627 9.15433 70.2747 9.683C70.5954 10.2117 70.7557 10.827 70.7557 11.529C70.7557 12.2137 70.5954 12.8247 70.2747 13.362C69.9627 13.8993 69.5251 14.324 68.9617 14.636C68.4071 14.9393 67.7701 15.091 67.0507 15.091ZM67.0507 13.7C67.4494 13.7 67.8047 13.6133 68.1167 13.44C68.4287 13.2667 68.6714 13.0153 68.8447 12.686C69.0267 12.3567 69.1177 11.971 69.1177 11.529C69.1177 11.0783 69.0267 10.6927 68.8447 10.372C68.6714 10.0427 68.4287 9.79133 68.1167 9.618C67.8047 9.44467 67.4537 9.358 67.0637 9.358C66.6651 9.358 66.3097 9.44467 65.9977 9.618C65.6944 9.79133 65.4517 10.0427 65.2697 10.372C65.0877 10.6927 64.9967 11.0783 64.9967 11.529C64.9967 11.971 65.0877 12.3567 65.2697 12.686C65.4517 13.0153 65.6944 13.2667 65.9977 13.44C66.3097 13.6133 66.6607 13.7 67.0507 13.7ZM76.5086 7.98C77.0633 7.98 77.5573 8.08833 77.9906 8.305C78.4326 8.52167 78.7793 8.85533 79.0306 9.306C79.282 9.748 79.4076 10.32 79.4076 11.022V15H77.7826V11.23C77.7826 10.6147 77.6353 10.1553 77.3406 9.852C77.0546 9.54867 76.6516 9.397 76.1316 9.397C75.7503 9.397 75.4123 9.475 75.1176 9.631C74.823 9.787 74.5933 10.021 74.4286 10.333C74.2726 10.6363 74.1946 11.022 74.1946 11.49V15H72.5696V8.058H74.1166V9.93L73.8436 9.358C74.0863 8.916 74.4373 8.578 74.8966 8.344C75.3646 8.10133 75.902 7.98 76.5086 7.98ZM85.0047 15.091C84.2334 15.091 83.5574 14.9393 82.9767 14.636C82.4047 14.324 81.9584 13.8993 81.6377 13.362C81.3257 12.8247 81.1697 12.2137 81.1697 11.529C81.1697 10.8357 81.3214 10.2247 81.6247 9.696C81.9367 9.15867 82.3614 8.73833 82.8987 8.435C83.4447 8.13167 84.0644 7.98 84.7577 7.98C85.4337 7.98 86.0361 8.12733 86.5647 8.422C87.0934 8.71667 87.5094 9.13267 87.8127 9.67C88.1161 10.2073 88.2677 10.84 88.2677 11.568C88.2677 11.6373 88.2634 11.7153 88.2547 11.802C88.2547 11.8887 88.2504 11.971 88.2417 12.049H82.4567V10.97H87.3837L86.7467 11.308C86.7554 10.9093 86.6731 10.5583 86.4997 10.255C86.3264 9.95167 86.0881 9.71333 85.7847 9.54C85.4901 9.36667 85.1477 9.28 84.7577 9.28C84.3591 9.28 84.0081 9.36667 83.7047 9.54C83.4101 9.71333 83.1761 9.956 83.0027 10.268C82.8381 10.5713 82.7557 10.931 82.7557 11.347V11.607C82.7557 12.023 82.8511 12.3913 83.0417 12.712C83.2324 13.0327 83.5011 13.2797 83.8477 13.453C84.1944 13.6263 84.5931 13.713 85.0437 13.713C85.4337 13.713 85.7847 13.6523 86.0967 13.531C86.4087 13.4097 86.6861 13.219 86.9287 12.959L87.7997 13.96C87.4877 14.324 87.0934 14.6057 86.6167 14.805C86.1487 14.9957 85.6114 15.091 85.0047 15.091Z" fill="black"/>
<path d="M46.262 35V26.29L46.678 26.732H44.117V25.9H47.198V35H46.262ZM51.2193 35V26.29L51.6353 26.732H49.0743V25.9H52.1553V35H51.2193ZM56.1765 35V26.29L56.5925 26.732H54.0315V25.9H57.1125V35H56.1765ZM64.7961 35V26.29L65.2121 26.732H62.6511V25.9H65.7321V35H64.7961ZM69.7534 35V26.29L70.1694 26.732H67.6084V25.9H70.6894V35H69.7534ZM74.7107 35V26.29L75.1267 26.732H72.5657V25.9H75.6467V35H74.7107ZM83.3303 35V26.29L83.7463 26.732H81.1853V25.9H84.2663V35H83.3303ZM88.2875 35V26.29L88.7035 26.732H86.1425V25.9H89.2235V35H88.2875ZM93.2448 35V26.29L93.6608 26.732H91.0998V25.9H94.1808V35H93.2448Z" fill="#DD5471"/>
</svg>
