<svg width="2056" height="1236" viewBox="0 0 2056 1236" fill="none" xmlns="http://www.w3.org/2000/svg">
<g clip-path="url(#clip0_1_87)">
<rect width="2056" height="1236" fill="white"/>
<g filter="url(#filter0_f_1_87)">
<path d="M1118.65 1249C1300.16 1249 1344.96 959.813 1344.96 778.695C1344.96 597.578 1777.62 487.703 1526.77 371.309C1410.35 317.292 1320.2 331.718 1198.11 371.309C908.104 465.358 790 739.94 790 921.058C790 1102.18 937.143 1249 1118.65 1249Z" fill="#FFCED8"/>
</g>
<g filter="url(#filter1_f_1_87)">
<path d="M1230.73 220.8C1341.19 92.7791 1434.64 -113.429 1431.89 -282.502C1423.15 -820.898 227.241 -329.603 -28.4359 144.274C-246.023 547.553 -463.773 1351.06 -6.8293 1384.81C282.945 1406.22 597.372 1311.99 721.919 1049.44C795.841 893.615 766.367 637.152 869.911 499.223C950.907 391.329 1142.6 322.946 1230.73 220.8Z" fill="#CFDBE4"/>
</g>
<g filter="url(#filter2_f_1_87)">
<ellipse cx="2562.1" cy="1137.23" rx="997.104" ry="997.227" fill="#DCF3FF"/>
</g>
</g>
<defs>
<filter id="filter0_f_1_87" x="390" y="-64" width="1615" height="1713" filterUnits="userSpaceOnUse" color-interpolation-filters="sRGB">
<feFlood flood-opacity="0" result="BackgroundImageFix"/>
<feBlend mode="normal" in="SourceGraphic" in2="BackgroundImageFix" result="shape"/>
<feGaussianBlur stdDeviation="200" result="effect1_foregroundBlur_1_87"/>
</filter>
<filter id="filter1_f_1_87" x="-675.694" y="-917.545" width="2507.64" height="2705.29" filterUnits="userSpaceOnUse" color-interpolation-filters="sRGB">
<feFlood flood-opacity="0" result="BackgroundImageFix"/>
<feBlend mode="normal" in="SourceGraphic" in2="BackgroundImageFix" result="shape"/>
<feGaussianBlur stdDeviation="200" result="effect1_foregroundBlur_1_87"/>
</filter>
<filter id="filter2_f_1_87" x="1165" y="-260" width="2794.21" height="2794.45" filterUnits="userSpaceOnUse" color-interpolation-filters="sRGB">
<feFlood flood-opacity="0" result="BackgroundImageFix"/>
<feBlend mode="normal" in="SourceGraphic" in2="BackgroundImageFix" result="shape"/>
<feGaussianBlur stdDeviation="200" result="effect1_foregroundBlur_1_87"/>
</filter>
<clipPath id="clip0_1_87">
<rect width="2056" height="1236" fill="white"/>
</clipPath>
</defs>
</svg>
