<svg width="720" height="900" viewBox="0 0 720 900" fill="none" xmlns="http://www.w3.org/2000/svg">
<path d="M15.9763 764H14.7863C14.0363 764 13.2763 764.15 12.5463 764.26L11.6563 764.39C10.7563 764.51 9.85632 764.67 9.17632 764.8L8.34631 764.94C7.76449 765.021 7.18709 765.131 6.61631 765.27C6.25631 765.37 5.88631 765.49 5.50631 765.63C5.06292 765.792 4.62892 765.979 4.20632 766.19C3.8498 766.415 3.51502 766.673 3.20632 766.96L3.10632 767.05L3.00631 767.14C2.62457 767.49 2.28857 767.886 2.00631 768.32C1.8595 768.538 1.73233 768.769 1.62631 769.01L1.37631 769.23C0.756985 769.854 0.399296 770.691 0.376314 771.57C0.246314 773.24 0.096313 775.46 0.016313 777.72C0.016313 778.39 0.016313 779.07 0.016313 779.72C0.016313 779.98 0.016313 780.23 0.016313 780.48C0.016313 781.57 0.016313 782.66 0.016313 783.75C0.016313 785.16 0.016313 786.59 0.016313 787.98C0.016313 790.39 -0.0536851 792.87 0.0963149 795.31C0.172417 796.514 0.31934 797.713 0.536317 798.9C0.710294 799.839 1.04884 800.739 1.53632 801.56C2.43594 802.951 3.75187 804.022 5.29631 804.62C6.04849 804.956 6.82799 805.227 7.62631 805.43C8.28631 805.59 8.96631 805.69 9.62631 805.79C10.5663 805.92 11.5163 806.02 12.3263 806.1C13.1363 806.18 14.0563 806.25 15.0163 806.3C15.9763 806.35 16.6763 806.37 17.3963 806.37C18.5397 806.377 19.6823 806.307 20.8163 806.16L21.2663 806.11C21.8374 806.046 22.4048 805.952 22.9663 805.83C23.4665 805.715 23.9604 805.575 24.4463 805.41C25.5131 805.053 26.5497 804.612 27.5463 804.09C27.9123 803.895 28.2663 803.678 28.6063 803.44C29.1876 803.072 29.7304 802.647 30.2263 802.17C31.0402 801.385 31.7163 800.469 32.2263 799.46C32.8614 798.195 33.3222 796.849 33.5963 795.46C33.8344 794.233 34.0079 792.995 34.1163 791.75C34.2863 790.05 34.3163 788.31 34.3563 786.62V786.09C34.3563 784.01 34.4163 782.09 34.4163 780.2C34.4218 778.092 34.2006 775.99 33.7563 773.93C33.5024 772.81 33.1199 771.722 32.6163 770.69C32.1988 769.839 31.6138 769.08 30.8963 768.46C30.2876 767.935 29.6158 767.488 28.8963 767.13C27.8687 766.665 26.8134 766.265 25.7363 765.93L25.2563 765.77C24.6463 765.57 24.0063 765.36 23.3763 765.18C21.4171 764.61 19.408 764.228 17.3763 764.04C17.0063 764.02 16.4863 764 15.9763 764Z" fill="#03A9F4"/>
<path d="M72.7464 789.23C73.3331 789.23 73.9231 789.23 74.5164 789.23C75.9492 789.301 77.3738 789.488 78.7764 789.79C79.3699 789.914 79.952 790.088 80.5164 790.31C81.2705 790.571 81.9867 790.931 82.6464 791.38C83.3875 791.857 83.9582 792.558 84.2764 793.38C84.4774 793.811 84.6478 794.255 84.7864 794.71C84.9691 795.298 85.1062 795.9 85.1964 796.51C85.5915 799.315 85.712 802.152 85.5564 804.98C85.5564 806.31 85.4964 807.65 85.4364 808.98C85.4014 810.466 85.2812 811.948 85.0764 813.42C85.0219 813.953 84.9009 814.477 84.7164 814.98C84.5625 815.41 84.3752 815.828 84.1564 816.23C83.9365 816.613 83.6857 816.978 83.4064 817.32C83.164 817.641 82.8855 817.933 82.5764 818.19C82.2622 818.435 81.9276 818.652 81.5764 818.84C81.3251 818.975 81.0644 819.092 80.7964 819.19C80.5002 819.316 80.1962 819.423 79.8864 819.51C79.5844 819.597 79.2771 819.663 78.9664 819.71C78.4964 819.77 78.0364 819.85 77.5664 819.88C76.2264 819.97 74.8864 819.99 73.5664 819.95L71.4664 819.86L70.4664 819.77C70.0031 819.728 69.5424 819.662 69.0864 819.57C68.6901 819.507 68.3014 819.403 67.9264 819.26C67.4241 819.075 66.9444 818.833 66.4964 818.54C66.0189 818.214 65.6082 817.8 65.2864 817.32C64.9907 816.845 64.7492 816.339 64.5664 815.81C64.3094 815.04 64.1515 814.24 64.0964 813.43C63.9631 812.195 63.9096 810.952 63.9364 809.71C63.9364 806.96 64.0464 804.2 64.0864 801.45C64.0864 800.117 64.0864 798.783 64.0864 797.45V796.92C64.0282 796.375 64.0048 795.827 64.0164 795.28C64.0164 795.16 64.0164 795.04 64.0164 794.92C64.0164 794.41 64.0164 793.92 63.9464 793.4C63.9353 793.115 63.9889 792.831 64.1032 792.569C64.2175 792.308 64.3895 792.075 64.6064 791.89C64.6898 791.725 64.7868 791.568 64.8964 791.42C65.2764 790.869 65.7888 790.422 66.3864 790.12C66.7564 789.932 67.141 789.775 67.5364 789.65C67.8228 789.574 68.1132 789.513 68.4064 789.47C69.1702 789.342 69.9421 789.268 70.7164 789.25L72.7464 789.23ZM69.1764 792.98C68.9462 793.021 68.719 793.078 68.4964 793.15L68.2764 793.28L68.2064 793.35V793.4C68.2864 794.67 68.3564 795.94 68.3864 797.22C68.4664 799.887 68.5331 802.573 68.5864 805.28C68.5864 807.85 68.5864 810.41 68.9364 812.96C69.0198 813.547 69.1537 814.126 69.3364 814.69V814.76L69.5364 814.87C70.0069 815.025 70.4882 815.145 70.9764 815.23C72.1964 815.37 73.4264 815.46 74.6564 815.53C75.9116 815.615 77.1712 815.615 78.4264 815.53C78.8614 815.455 79.2896 815.345 79.7064 815.2L80.0164 815.02C80.1472 814.897 80.2708 814.767 80.3864 814.63C80.5353 814.402 80.6689 814.165 80.7864 813.92C80.8861 813.642 80.9663 813.358 81.0264 813.07C81.2362 810.589 81.3163 808.099 81.2664 805.61C81.325 802.984 81.2482 800.358 81.0364 797.74C80.9142 796.825 80.7032 795.924 80.4064 795.05L80.3064 794.88L80.1464 794.71C79.8256 794.508 79.4915 794.327 79.1464 794.17C78.9064 794.08 78.6764 793.99 78.4264 793.92C78.1764 793.85 77.6664 793.71 77.2864 793.62C76.5683 793.436 75.8405 793.293 75.1064 793.19C74.1064 793.07 73.1764 792.97 72.2064 792.91L70.4864 792.92C70.0489 792.911 69.6113 792.931 69.1764 792.98Z" fill="#03A9F4"/>
<path d="M102.236 856.92C103.526 856.92 104.826 856.92 106.116 857.01C106.766 857.01 107.406 857.1 108.056 857.1C108.706 857.1 109.256 857.1 109.856 857.1C111.29 857.137 112.716 857.312 114.116 857.62C115.356 857.9 116.606 858.14 117.846 858.44C119.413 858.687 120.911 859.256 122.246 860.11C122.689 860.42 123.098 860.775 123.466 861.17C123.867 861.589 124.204 862.064 124.466 862.58C124.827 863.301 125.118 864.054 125.336 864.83C125.676 866.04 125.976 867.26 126.286 868.48C126.936 870.98 127.346 873.48 127.746 876.08C127.956 877.39 128.176 878.7 128.356 880.02C128.576 881.59 128.716 883.17 128.806 884.76C128.946 887.38 129.066 890 128.986 892.62C128.986 894.08 128.876 895.54 128.796 897C128.707 898.548 128.536 900.09 128.286 901.62C128.139 902.504 127.877 903.364 127.506 904.18C127.207 904.8 126.827 905.379 126.376 905.9C125.863 906.501 125.255 907.014 124.576 907.42C123.989 907.77 123.378 908.078 122.746 908.34H122.676L122.346 908.48L122.206 908.54C121.596 908.79 120.976 909.04 120.346 909.26C119.716 909.48 119.096 909.66 118.466 909.84L117.286 910.17C116.47 910.368 115.642 910.512 114.806 910.6C114.186 910.68 113.546 910.74 112.916 910.79C110.157 910.982 107.39 911.028 104.626 910.93C101.742 910.885 98.8654 910.604 96.0264 910.09C94.7488 909.852 93.4866 909.538 92.2464 909.15C91.4471 908.901 90.6625 908.607 89.8964 908.27C89.3154 908.031 88.7675 907.719 88.2664 907.34C87.6141 906.893 87.0595 906.318 86.6364 905.65C86.3464 905.152 86.134 904.612 86.0064 904.05C85.8518 903.241 85.7515 902.422 85.7064 901.6C85.6264 900.33 85.5964 899.06 85.6364 897.79C85.8264 892.27 85.9164 886.74 86.0264 881.22C86.0964 877.8 86.1664 874.38 86.1964 870.96C86.1054 870.858 86.025 870.748 85.9564 870.63C85.7775 870.327 85.6841 869.982 85.6864 869.63C85.6114 868.338 85.6114 867.042 85.6864 865.75C85.6551 864.235 85.9626 862.731 86.5864 861.35C87.0317 860.448 87.7256 859.691 88.5864 859.17C89.2222 858.834 89.8929 858.569 90.5864 858.38C91.1764 858.21 91.7664 858 92.3764 857.87C92.9864 857.74 93.5464 857.6 94.1364 857.51C94.7264 857.42 95.3164 857.32 95.9064 857.22C96.6764 857.1 97.4464 857.02 98.2264 856.95C99.4864 856.92 100.876 856.92 102.236 856.92ZM94.8164 861.6L93.2964 861.82L93.6264 861.77C93.0364 861.88 92.4564 862.02 91.8764 862.18C91.4764 862.29 91.0764 862.39 90.6864 862.53L90.3264 862.72L90.2264 862.83C90.1064 863.01 89.9964 863.18 89.8864 863.37C89.7764 863.56 89.7964 863.73 89.7564 863.92C89.6764 864.76 89.6764 865.62 89.6664 866.47C89.6564 867.32 89.6664 867.89 89.6664 868.6V869.22C89.7264 874.68 89.8464 880.15 89.9664 885.61C90.0264 888.44 90.0764 891.26 90.1464 894.08C90.2064 896.54 90.2764 899 90.5664 901.44C90.6344 901.995 90.7481 902.544 90.9064 903.08V903.17L91.1664 903.42C91.5304 903.661 91.9114 903.875 92.3064 904.06C93.3359 904.455 94.3877 904.789 95.4564 905.06C96.0564 905.21 96.6564 905.36 97.2664 905.47C97.8764 905.58 98.6764 905.71 99.3864 905.81C102.044 906.09 104.715 906.221 107.386 906.2C108.686 906.2 109.976 906.2 111.266 906.2C112.556 906.2 113.636 906.05 114.816 905.91C115.975 905.689 117.117 905.391 118.236 905.02C118.976 904.8 119.696 904.53 120.416 904.24L120.746 904.09C121.259 903.858 121.75 903.584 122.216 903.27L122.606 902.9C122.716 902.73 122.816 902.55 122.916 902.37C123.062 901.929 123.172 901.478 123.246 901.02C123.375 899.774 123.438 898.522 123.436 897.27C123.436 895.81 123.436 894.34 123.436 892.88C123.436 891.42 123.376 890.15 123.306 888.79C123.166 886.28 123.046 883.79 122.736 881.29C122.496 879.55 122.216 877.82 121.986 876.09C121.756 874.36 121.426 872.38 120.986 870.53C120.786 869.59 120.586 868.64 120.356 867.7C120.126 866.76 119.966 866.09 119.696 865.31C119.596 865.13 119.496 864.95 119.386 864.78C119.25 864.62 119.103 864.47 118.946 864.33C118.789 864.227 118.625 864.133 118.456 864.05C117.238 863.607 115.996 863.233 114.736 862.93C114.056 862.76 113.376 862.58 112.736 862.39C112.187 862.237 111.63 862.116 111.066 862.03C110.546 861.97 110.066 861.93 109.506 861.89C108.946 861.85 108.356 861.89 107.776 861.81L105.926 861.67C104.566 861.58 103.196 861.5 101.826 861.44C100.456 861.38 99.1964 861.31 97.8864 861.36C96.8764 861.35 95.8464 861.47 94.8164 861.6Z" fill="#99DDC6"/>
<path d="M112.376 799.38H113.376C114.716 799.38 116.056 799.47 117.376 799.55C118.696 799.63 120.096 799.72 121.456 799.78C122.816 799.84 124.026 799.99 125.316 800.07C126.606 800.15 127.956 800.28 129.316 800.37C130.779 800.42 132.229 800.648 133.636 801.05C134.375 801.301 135.091 801.616 135.776 801.99C136.561 802.387 137.261 802.934 137.836 803.6C138.32 804.175 138.726 804.81 139.046 805.49C139.356 806.22 139.636 806.95 139.876 807.71C140.274 808.919 140.566 810.16 140.746 811.42C140.961 812.931 141.082 814.454 141.106 815.98C141.105 817.23 141.028 818.479 140.876 819.72C140.726 821.22 140.616 822.72 140.346 824.21C140.128 825.517 139.794 826.802 139.346 828.05C139.08 828.776 138.745 829.476 138.346 830.14C138.154 830.427 137.947 830.704 137.726 830.97C137.6 831.153 137.456 831.324 137.296 831.48C136.873 831.866 136.407 832.201 135.906 832.48C134.458 833.202 132.873 833.611 131.256 833.68C129.926 833.83 128.596 833.94 127.256 834.02C125.916 834.1 124.586 834.1 123.256 834.11C121.926 834.12 120.606 834.11 119.256 834.11C117.906 834.11 116.446 834.11 115.036 834.03C113.626 833.95 112.486 833.85 111.216 833.76C109.946 833.67 108.566 833.54 107.216 833.38C106.306 833.27 105.396 833.16 104.496 832.98C103.821 832.849 103.154 832.682 102.496 832.48C100.764 832.081 99.1859 831.184 97.9564 829.9C97.6089 829.499 97.2945 829.071 97.0164 828.62C96.742 828.148 96.511 827.653 96.3264 827.14C96.0419 826.294 95.8573 825.418 95.7764 824.53C95.6514 823.276 95.6514 822.013 95.7764 820.76C95.8764 819.36 96.0564 817.96 96.2464 816.57L96.6364 813.67C96.8264 812.05 97.0064 810.44 97.2764 808.84C97.3895 808.201 97.5431 807.569 97.7364 806.95C97.9172 806.357 98.1343 805.776 98.3864 805.21C98.6691 804.638 99.0218 804.104 99.4364 803.62C99.9398 802.985 100.533 802.425 101.196 801.96L101.486 801.92L101.676 801.8C102.236 801.472 102.821 801.191 103.426 800.96C104.901 800.296 106.5 799.955 108.116 799.96C108.404 799.801 108.728 799.719 109.056 799.72H109.346C110.026 799.63 110.696 799.55 111.346 799.51C111.716 799.39 112.046 799.38 112.376 799.38ZM108.756 804.85C108.561 804.873 108.368 804.906 108.176 804.95C107.734 805.048 107.3 805.178 106.876 805.34C106.216 805.62 105.581 805.954 104.976 806.34L104.776 806.47C104.639 806.599 104.509 806.736 104.386 806.88C104.204 807.145 104.04 807.422 103.896 807.71C103.631 808.55 103.43 809.409 103.296 810.28C102.996 812.7 102.806 815.14 102.506 817.56C102.346 818.91 102.226 820.26 102.156 821.62C102.086 822.675 102.086 823.734 102.156 824.79C102.226 825.08 102.296 825.37 102.386 825.66C102.487 825.849 102.597 826.032 102.716 826.21L102.856 826.36C103.143 826.541 103.44 826.705 103.746 826.85C104.541 827.16 105.356 827.414 106.186 827.61C107.076 827.82 107.996 827.94 108.906 828.08C110.006 828.22 111.106 828.33 112.206 828.47C113.576 828.65 114.936 828.76 116.316 828.83C119.026 828.98 121.746 829.01 124.466 829.05C126.941 829.098 129.417 828.982 131.876 828.7C132.335 828.634 132.787 828.526 133.226 828.38L133.646 828.14L133.836 827.94C134.111 827.52 134.352 827.078 134.556 826.62C134.946 825.388 135.237 824.128 135.426 822.85C135.526 822.03 135.596 821.21 135.656 820.39C135.716 819.57 135.836 818.6 135.906 817.7C135.976 816.8 135.986 815.84 135.976 814.9C135.966 813.96 135.926 813.09 135.826 812.19C135.718 811.311 135.557 810.44 135.346 809.58C135.139 808.701 134.885 807.833 134.586 806.98C134.479 806.745 134.355 806.518 134.216 806.3L134.126 806.21C133.849 806.031 133.562 805.867 133.266 805.72C132.673 805.499 132.06 805.331 131.436 805.22C130.436 805.13 129.436 805.11 128.516 805.04C127.396 804.95 126.276 804.91 125.156 804.82C123.846 804.73 122.536 804.62 121.226 804.56C119.916 804.5 118.716 804.44 117.456 804.36H116.836C114.126 804.51 111.426 804.56 108.756 804.85Z" fill="#4D4962"/>
<path d="M68.9963 844.08C68.9963 844.33 68.9963 844.57 68.9963 844.82C68.9963 845.82 68.9363 846.82 68.8763 847.82C68.8163 848.82 68.7463 849.88 68.6963 850.91C68.6463 851.94 68.5463 852.85 68.4863 853.83C68.4263 854.81 68.3263 855.83 68.2463 856.83C68.2118 857.94 68.0405 859.042 67.7363 860.11C67.5494 860.667 67.3117 861.206 67.0263 861.72C66.7305 862.321 66.3154 862.855 65.8063 863.29C65.3741 863.655 64.8927 863.958 64.3763 864.19C63.828 864.433 63.2672 864.646 62.6963 864.83C61.7802 865.13 60.8401 865.351 59.8863 865.49C58.7428 865.65 57.5907 865.74 56.4363 865.76C55.487 865.755 54.5387 865.695 53.5963 865.58C52.4663 865.47 51.3263 865.39 50.2063 865.18C49.2145 865.014 48.2403 864.756 47.2963 864.41C46.7429 864.201 46.2105 863.94 45.7063 863.63C45.4863 863.49 45.2863 863.32 45.0863 863.17C44.9493 863.065 44.8191 862.951 44.6963 862.83C44.3947 862.513 44.1328 862.16 43.9163 861.78C43.3667 860.684 43.0533 859.485 42.9963 858.26C42.8863 857.26 42.8063 856.26 42.7463 855.26C42.6863 854.26 42.6863 853.26 42.6763 852.26C42.6663 851.26 42.6763 850.26 42.6763 849.26C42.6763 848.26 42.6763 847.13 42.7263 846.06C42.7763 844.99 42.8663 844.14 42.9363 843.17C43.0063 842.2 43.0963 841.17 43.2263 840.17C43.3063 839.48 43.3863 838.79 43.5263 838.11C43.6271 837.604 43.7539 837.103 43.9063 836.61C44.2151 835.29 44.9116 834.092 45.9063 833.17C46.2195 832.906 46.554 832.669 46.9063 832.46C47.2638 832.254 47.6385 832.08 48.0263 831.94C48.6732 831.718 49.3449 831.577 50.0263 831.52C50.9739 831.425 51.9287 831.425 52.8763 831.52C53.9463 831.59 54.9963 831.73 56.0563 831.88L58.2463 832.17C59.4663 832.32 60.6963 832.45 61.9063 832.65C62.389 832.741 62.8663 832.857 63.3363 833C63.7861 833.14 64.2269 833.307 64.6563 833.5C65.0882 833.711 65.4915 833.977 65.8563 834.29C66.336 834.673 66.7601 835.12 67.1163 835.62L67.2363 835.81L67.3263 835.95C67.5715 836.374 67.7854 836.815 67.9663 837.27C68.4673 838.39 68.7263 839.603 68.7263 840.83C68.8496 841.05 68.9149 841.298 68.9163 841.55V841.77C68.9863 842.28 69.0463 842.77 69.0763 843.31C68.9963 843.58 68.9963 843.83 68.9963 844.08ZM64.8663 841.34C64.8663 841.19 64.8663 841.04 64.7863 840.9C64.7082 840.56 64.608 840.226 64.4863 839.9C64.2642 839.4 64.0034 838.919 63.7063 838.46L63.5963 838.31C63.504 838.203 63.4037 838.102 63.2963 838.01C63.0956 837.871 62.8851 837.748 62.6663 837.64C62.0116 837.439 61.3432 837.285 60.6663 837.18C58.8363 836.96 56.9963 836.81 55.1563 836.59C54.1563 836.47 53.1563 836.38 52.0863 836.32C51.2871 836.27 50.4855 836.27 49.6863 836.32C49.4625 836.365 49.2419 836.425 49.0263 836.5C48.8798 836.568 48.7393 836.648 48.6063 836.74L48.4963 836.85C48.3579 837.066 48.231 837.29 48.1163 837.52C47.8844 838.123 47.6939 838.741 47.5463 839.37C47.3863 840.05 47.2963 840.74 47.1863 841.37C47.0863 842.21 46.9963 843.05 46.8863 843.88C46.7563 844.88 46.6763 845.95 46.6163 846.99C46.5063 849.04 46.4863 851.1 46.4563 853.16C46.4179 855.034 46.5048 856.908 46.7163 858.77C46.7717 859.11 46.8553 859.444 46.9663 859.77C47.0188 859.877 47.0789 859.981 47.1463 860.08L47.2963 860.23C47.6153 860.435 47.9496 860.616 48.2963 860.77C49.2304 861.066 50.1868 861.287 51.1563 861.43C51.7763 861.5 52.3963 861.56 53.0163 861.6C53.6363 861.64 54.3663 861.74 55.0163 861.79C55.6663 861.84 56.4263 861.85 57.1363 861.79C57.8244 861.788 58.512 861.751 59.1963 861.68C59.8698 861.602 60.5378 861.482 61.1963 861.32C61.8729 861.163 62.5406 860.969 63.1963 860.74C63.3747 860.66 63.5483 860.57 63.7163 860.47L63.7763 860.4C63.913 860.191 64.0366 859.974 64.1463 859.75C64.3172 859.296 64.4444 858.828 64.5263 858.35C64.5963 857.62 64.6063 856.88 64.6663 856.15C64.7263 855.42 64.7663 854.45 64.8263 853.6C64.8863 852.75 64.9863 851.6 65.0263 850.6C65.0663 849.6 65.1163 848.69 65.1763 847.74C65.1763 847.58 65.1763 847.43 65.1763 847.27C65.1163 845.4 65.0763 843.36 64.8663 841.34Z" fill="#4D4962"/>
<path d="M594.976 0H593.786C593.036 0 592.276 0.149995 591.546 0.259995L590.656 0.389999C589.756 0.509999 588.856 0.670003 588.176 0.800003L587.346 0.940002C586.764 1.02098 586.187 1.13112 585.616 1.27C585.256 1.37 584.886 1.49 584.506 1.63C584.063 1.7924 583.629 1.97935 583.206 2.19C582.85 2.41507 582.515 2.67283 582.206 2.95999L582.106 3.05L582.006 3.14C581.625 3.48961 581.289 3.88608 581.006 4.31999C580.859 4.53831 580.732 4.76921 580.626 5.00999L580.376 5.23C579.757 5.85408 579.399 6.69106 579.376 7.56999C579.246 9.23999 579.096 11.46 579.016 13.72C579.016 14.39 579.016 15.07 579.016 15.72C579.016 15.98 579.016 16.23 579.016 16.48C579.016 17.57 579.016 18.66 579.016 19.75C579.016 21.16 579.016 22.59 579.016 23.98C579.016 26.39 578.946 28.87 579.096 31.31C579.172 32.5143 579.319 33.713 579.536 34.9C579.71 35.8387 580.049 36.7392 580.536 37.56C581.436 38.9507 582.752 40.0216 584.296 40.62C585.048 40.9559 585.828 41.2269 586.626 41.43C587.286 41.59 587.966 41.69 588.626 41.79C589.566 41.92 590.516 42.02 591.326 42.1C592.136 42.18 593.056 42.25 594.016 42.3C594.976 42.35 595.676 42.37 596.396 42.37C597.54 42.3767 598.682 42.3065 599.816 42.16L600.266 42.11C600.837 42.0459 601.405 41.9525 601.966 41.83C602.466 41.7152 602.96 41.5751 603.446 41.41C604.513 41.0531 605.55 40.6117 606.546 40.09C606.912 39.8947 607.266 39.6777 607.606 39.44C608.188 39.0722 608.73 38.6467 609.226 38.17C610.04 37.3852 610.716 36.4691 611.226 35.46C611.861 34.1946 612.322 32.849 612.596 31.46C612.834 30.2333 613.008 28.9949 613.116 27.75C613.286 26.05 613.316 24.31 613.356 22.62V22.09C613.356 20.01 613.416 18.09 613.416 16.2C613.422 14.0924 613.201 11.9903 612.756 9.92999C612.502 8.80968 612.12 7.72248 611.616 6.69C611.199 5.83855 610.614 5.08008 609.896 4.45999C609.288 3.9351 608.616 3.48832 607.896 3.13C606.869 2.66528 605.813 2.26451 604.736 1.92999L604.256 1.77C603.646 1.57 603.006 1.35999 602.376 1.17999C600.417 0.610223 598.408 0.228498 596.376 0.0399933C596.006 0.0199933 595.486 0 594.976 0Z" fill="#03A9F4"/>
<path d="M651.746 25.2299C652.333 25.2299 652.923 25.2299 653.516 25.2299C654.949 25.3012 656.374 25.4885 657.776 25.7899C658.37 25.9143 658.952 26.0882 659.516 26.3099C660.27 26.5711 660.987 26.9308 661.646 27.3799C662.388 27.8575 662.958 28.5576 663.276 29.3799C663.477 29.8107 663.648 30.2551 663.786 30.7099C663.969 31.2984 664.106 31.9002 664.196 32.5099C664.591 35.3148 664.712 38.1515 664.556 40.9799C664.556 42.3099 664.496 43.6499 664.436 44.9799C664.401 46.4655 664.281 47.948 664.076 49.4199C664.022 49.9528 663.901 50.4769 663.716 50.9799C663.562 51.4104 663.375 51.8284 663.156 52.2299C662.937 52.613 662.686 52.9776 662.406 53.3199C662.164 53.6407 661.885 53.9326 661.576 54.1899C661.262 54.4346 660.928 54.652 660.576 54.8399C660.325 54.9749 660.064 55.0919 659.796 55.1899C659.5 55.3158 659.196 55.4227 658.886 55.5099C658.584 55.5966 658.277 55.6634 657.966 55.7099C657.496 55.7699 657.036 55.8499 656.566 55.8799C655.226 55.9699 653.886 55.9899 652.566 55.9499L650.466 55.8599L649.466 55.7699C649.003 55.7284 648.542 55.6617 648.086 55.5699C647.69 55.5067 647.301 55.4028 646.926 55.2599C646.424 55.0745 645.944 54.833 645.496 54.5399C645.019 54.2141 644.608 53.8 644.286 53.3199C643.991 52.845 643.749 52.3385 643.566 51.8099C643.309 51.0397 643.151 50.2399 643.096 49.4299C642.963 48.1946 642.91 46.952 642.936 45.7099C642.936 42.9599 643.046 40.1999 643.086 37.4499C643.086 36.1165 643.086 34.7832 643.086 33.4499V32.9199C643.028 32.3752 643.005 31.8275 643.016 31.2799C643.016 31.1599 643.016 31.0399 643.016 30.9199C643.016 30.4099 643.016 29.9199 642.946 29.3999C642.935 29.1147 642.989 28.8307 643.103 28.5691C643.217 28.3076 643.39 28.0754 643.606 27.8899C643.69 27.7254 643.787 27.5682 643.896 27.4199C644.276 26.8687 644.789 26.4217 645.386 26.1199C645.756 25.9325 646.141 25.7753 646.536 25.6499C646.823 25.5735 647.113 25.5135 647.406 25.4699C648.17 25.3416 648.942 25.2681 649.716 25.2499L651.746 25.2299ZM648.176 28.9799C647.946 29.0212 647.719 29.078 647.496 29.1499L647.276 29.2799L647.206 29.3499V29.3999C647.286 30.6699 647.356 31.9399 647.386 33.2199C647.466 35.8865 647.533 38.5732 647.586 41.2799C647.586 43.8499 647.586 46.4099 647.936 48.9599C648.02 49.5469 648.154 50.1257 648.336 50.6899V50.7599L648.536 50.8699C649.007 51.025 649.488 51.1453 649.976 51.2299C651.196 51.3699 652.426 51.4599 653.656 51.5299C654.912 51.6149 656.171 51.6149 657.426 51.5299C657.861 51.4554 658.29 51.345 658.706 51.1999L659.016 51.0199C659.147 50.8972 659.271 50.767 659.386 50.6299C659.535 50.4023 659.669 50.1651 659.786 49.9199C659.886 49.6425 659.966 49.3584 660.026 49.0699C660.236 46.5891 660.316 44.099 660.266 41.6099C660.325 38.9843 660.248 36.3575 660.036 33.7399C659.914 32.8249 659.703 31.924 659.406 31.0499L659.306 30.8799L659.146 30.7099C658.826 30.5076 658.491 30.3272 658.146 30.1699C657.906 30.0799 657.676 29.9899 657.426 29.9199C657.176 29.8499 656.666 29.7099 656.286 29.6199C655.568 29.4362 654.84 29.2927 654.106 29.1899C653.106 29.0699 652.176 28.9699 651.206 28.9099L649.486 28.9199C649.049 28.9114 648.611 28.9315 648.176 28.9799Z" fill="#03A9F4"/>
<path d="M681.236 92.9199C682.526 92.9199 683.826 92.9199 685.116 93.0099C685.766 93.0099 686.406 93.0999 687.056 93.0999C687.706 93.0999 688.256 93.0999 688.856 93.0999C690.29 93.1374 691.716 93.3115 693.116 93.6199C694.356 93.8999 695.606 94.1399 696.846 94.4399C698.413 94.687 699.911 95.2556 701.246 96.1099C701.689 96.4197 702.098 96.775 702.466 97.1699C702.867 97.5886 703.204 98.0637 703.466 98.5799C703.827 99.3008 704.118 100.054 704.336 100.83C704.676 102.04 704.976 103.26 705.286 104.48C705.936 106.98 706.346 109.48 706.746 112.08C706.956 113.39 707.176 114.7 707.356 116.02C707.576 117.59 707.716 119.17 707.806 120.76C707.946 123.38 708.066 126 707.986 128.62C707.986 130.08 707.876 131.54 707.796 133C707.707 134.548 707.536 136.09 707.286 137.62C707.139 138.504 706.877 139.364 706.506 140.18C706.207 140.8 705.827 141.379 705.376 141.9C704.863 142.501 704.255 143.014 703.576 143.42C702.989 143.77 702.378 144.078 701.746 144.34H701.676L701.346 144.48L701.206 144.54C700.596 144.79 699.976 145.04 699.346 145.26C698.716 145.48 698.096 145.66 697.466 145.84L696.286 146.17C695.47 146.368 694.642 146.512 693.806 146.6C693.186 146.68 692.546 146.74 691.916 146.79C689.157 146.982 686.39 147.028 683.626 146.93C680.742 146.885 677.865 146.604 675.026 146.09C673.749 145.852 672.487 145.538 671.246 145.15C670.447 144.901 669.663 144.607 668.896 144.27C668.315 144.031 667.768 143.719 667.266 143.34C666.614 142.893 666.06 142.318 665.636 141.65C665.346 141.152 665.134 140.612 665.006 140.05C664.852 139.241 664.752 138.422 664.706 137.6C664.626 136.33 664.596 135.06 664.636 133.79C664.826 128.27 664.916 122.74 665.026 117.22C665.096 113.8 665.166 110.38 665.196 106.96C665.105 106.858 665.025 106.748 664.956 106.63C664.777 106.327 664.684 105.982 664.686 105.63C664.611 104.338 664.611 103.042 664.686 101.75C664.655 100.235 664.963 98.7313 665.586 97.3499C666.032 96.4475 666.726 95.6912 667.586 95.1699C668.222 94.8342 668.893 94.5693 669.586 94.3799C670.176 94.2099 670.766 93.9999 671.376 93.8699C671.986 93.7399 672.546 93.5999 673.136 93.5099C673.726 93.4199 674.316 93.3199 674.906 93.2199C675.676 93.0999 676.446 93.0199 677.226 92.9499C678.486 92.9199 679.876 92.9199 681.236 92.9199ZM673.816 97.5999L672.296 97.8199L672.626 97.7699C672.036 97.8799 671.456 98.0199 670.876 98.1799C670.476 98.2899 670.076 98.3899 669.686 98.5299L669.326 98.7199L669.226 98.8299C669.106 99.0099 668.996 99.1799 668.886 99.3699C668.776 99.5599 668.796 99.7299 668.756 99.9199C668.676 100.76 668.676 101.62 668.666 102.47C668.656 103.32 668.666 103.89 668.666 104.6V105.22C668.726 110.68 668.846 116.15 668.966 121.61C669.026 124.44 669.076 127.26 669.146 130.08C669.206 132.54 669.276 135 669.566 137.44C669.634 137.995 669.748 138.544 669.906 139.08V139.17L670.166 139.42C670.53 139.661 670.911 139.875 671.306 140.06C672.336 140.455 673.388 140.789 674.456 141.06C675.056 141.21 675.656 141.36 676.266 141.47C676.876 141.58 677.676 141.71 678.386 141.81C681.044 142.09 683.715 142.221 686.386 142.2C687.686 142.2 688.976 142.2 690.266 142.2C691.556 142.2 692.636 142.05 693.816 141.91C694.975 141.689 696.117 141.391 697.236 141.02C697.976 140.8 698.696 140.53 699.416 140.24L699.746 140.09C700.259 139.858 700.75 139.584 701.216 139.27L701.606 138.9C701.716 138.73 701.816 138.55 701.916 138.37C702.062 137.929 702.172 137.478 702.246 137.02C702.375 135.774 702.438 134.522 702.436 133.27C702.436 131.81 702.436 130.34 702.436 128.88C702.436 127.42 702.376 126.15 702.306 124.79C702.166 122.28 702.046 119.79 701.736 117.29C701.496 115.55 701.216 113.82 700.986 112.09C700.756 110.36 700.426 108.38 699.986 106.53C699.786 105.59 699.586 104.64 699.356 103.7C699.126 102.76 698.966 102.09 698.696 101.31C698.596 101.13 698.496 100.95 698.386 100.78C698.25 100.62 698.103 100.47 697.946 100.33C697.789 100.227 697.625 100.133 697.456 100.05C696.238 99.6072 694.996 99.2332 693.736 98.9299C693.056 98.7599 692.376 98.5799 691.736 98.3899C691.187 98.2366 690.63 98.1164 690.066 98.0299C689.546 97.9699 689.066 97.9299 688.506 97.8899C687.946 97.8499 687.356 97.8899 686.776 97.8099L684.926 97.6699C683.566 97.5799 682.196 97.4999 680.826 97.4399C679.456 97.3799 678.196 97.3099 676.886 97.3599C675.876 97.3499 674.846 97.4699 673.816 97.5999Z" fill="#99DDC6"/>
<path d="M691.376 35.3799H692.376C693.716 35.3799 695.056 35.4699 696.376 35.5499C697.696 35.6299 699.096 35.7199 700.456 35.7799C701.816 35.8399 703.026 35.9899 704.316 36.0699C705.606 36.1499 706.956 36.2799 708.316 36.3699C709.779 36.4195 711.229 36.6479 712.636 37.0499C713.375 37.3013 714.091 37.6158 714.776 37.9899C715.561 38.3874 716.261 38.9343 716.836 39.5999C717.32 40.1749 717.726 40.8102 718.046 41.4899C718.356 42.2199 718.636 42.9499 718.876 43.7099C719.274 44.9187 719.566 46.1601 719.746 47.4199C719.961 48.9309 720.082 50.4538 720.106 51.9799C720.105 53.23 720.028 54.479 719.876 55.7199C719.726 57.2199 719.616 58.7199 719.346 60.2099C719.128 61.5172 718.794 62.8023 718.346 64.0499C718.08 64.7765 717.745 65.4763 717.346 66.1399C717.154 66.4271 716.947 66.7042 716.726 66.9699C716.6 67.1531 716.456 67.3239 716.296 67.4799C715.873 67.8658 715.407 68.2014 714.906 68.4799C713.458 69.2018 711.873 69.6107 710.256 69.6799C708.926 69.8299 707.596 69.9399 706.256 70.0199C704.916 70.0999 703.586 70.0999 702.256 70.1099C700.926 70.1199 699.606 70.1099 698.256 70.1099C696.906 70.1099 695.446 70.1099 694.036 70.0299C692.626 69.9499 691.486 69.8499 690.216 69.7599C688.946 69.6699 687.566 69.5399 686.216 69.3799C685.306 69.2699 684.396 69.1599 683.496 68.9799C682.821 68.8493 682.154 68.6824 681.496 68.4799C679.764 68.0808 678.186 67.184 676.956 65.8999C676.609 65.4994 676.295 65.0713 676.016 64.6199C675.742 64.1485 675.511 63.6531 675.326 63.1399C675.042 62.2943 674.857 61.4183 674.776 60.5299C674.651 59.2763 674.651 58.0134 674.776 56.7599C674.876 55.3599 675.056 53.9599 675.246 52.5699L675.636 49.6699C675.826 48.0499 676.006 46.4399 676.276 44.8399C676.389 44.2008 676.543 43.5695 676.736 42.9499C676.917 42.3571 677.134 41.776 677.386 41.2099C677.669 40.6384 678.022 40.1043 678.436 39.6199C678.94 38.9845 679.533 38.4254 680.196 37.9599L680.486 37.9199L680.676 37.7999C681.236 37.4721 681.821 37.1911 682.426 36.9599C683.901 36.296 685.5 35.9551 687.116 35.9599C687.404 35.8011 687.728 35.7185 688.056 35.7199H688.346C689.026 35.6299 689.696 35.5499 690.346 35.5099C690.716 35.3899 691.046 35.3799 691.376 35.3799ZM687.756 40.8499C687.561 40.8726 687.368 40.906 687.176 40.9499C686.734 41.048 686.3 41.1784 685.876 41.3399C685.216 41.6199 684.581 41.9544 683.976 42.3399L683.776 42.4699C683.639 42.5991 683.509 42.736 683.386 42.8799C683.204 43.145 683.04 43.4223 682.896 43.7099C682.631 44.5498 682.43 45.4091 682.296 46.2799C681.996 48.6999 681.806 51.1399 681.506 53.5599C681.346 54.9099 681.226 56.2599 681.156 57.6199C681.086 58.6754 681.086 59.7344 681.156 60.7899C681.226 61.0799 681.296 61.3699 681.386 61.6599C681.487 61.8488 681.597 62.0324 681.716 62.2099L681.856 62.3599C682.143 62.5409 682.44 62.7045 682.746 62.8499C683.541 63.1601 684.356 63.4141 685.186 63.6099C686.076 63.8199 686.996 63.9399 687.906 64.0799C689.006 64.2199 690.106 64.3299 691.206 64.4699C692.576 64.6499 693.936 64.7599 695.316 64.8299C698.026 64.9799 700.746 65.0099 703.466 65.0499C705.941 65.0985 708.417 64.9815 710.876 64.6999C711.335 64.6335 711.787 64.5264 712.226 64.3799L712.646 64.1399L712.836 63.9399C713.111 63.5199 713.352 63.0785 713.556 62.6199C713.946 61.3884 714.237 60.1277 714.426 58.8499C714.526 58.0299 714.596 57.2099 714.656 56.3899C714.716 55.5699 714.836 54.5999 714.906 53.6999C714.976 52.7999 714.986 51.8399 714.976 50.8999C714.966 49.9599 714.926 49.0899 714.826 48.1899C714.718 47.3112 714.557 46.4397 714.346 45.5799C714.139 44.7005 713.885 43.8326 713.586 42.9799C713.479 42.7449 713.355 42.5177 713.216 42.2999L713.126 42.2099C712.849 42.031 712.562 41.8675 712.266 41.7199C711.673 41.4985 711.06 41.3312 710.436 41.2199C709.436 41.1299 708.436 41.1099 707.516 41.0399C706.396 40.9499 705.276 40.9099 704.156 40.8199C702.846 40.7299 701.536 40.6199 700.226 40.5599C698.916 40.4999 697.716 40.4399 696.456 40.3599H695.836C693.126 40.5099 690.426 40.5599 687.756 40.8499Z" fill="#4D4962"/>
<path d="M647.996 80.08C647.996 80.33 647.996 80.5699 647.996 80.8199C647.996 81.8199 647.936 82.8199 647.876 83.8199C647.816 84.8199 647.746 85.88 647.696 86.91C647.646 87.94 647.546 88.85 647.486 89.83C647.426 90.81 647.326 91.83 647.246 92.83C647.212 93.9401 647.04 95.0417 646.736 96.11C646.549 96.6672 646.312 97.2061 646.026 97.72C645.73 98.3207 645.315 98.8549 644.806 99.2899C644.374 99.6554 643.893 99.9583 643.376 100.19C642.828 100.433 642.267 100.646 641.696 100.83C640.78 101.13 639.84 101.351 638.886 101.49C637.743 101.65 636.591 101.74 635.436 101.76C634.487 101.755 633.539 101.695 632.596 101.58C631.466 101.47 630.326 101.39 629.206 101.18C628.215 101.014 627.24 100.756 626.296 100.41C625.743 100.201 625.211 99.9396 624.706 99.63C624.486 99.49 624.286 99.32 624.086 99.17C623.949 99.0649 623.819 98.9513 623.696 98.83C623.395 98.5129 623.133 98.1603 622.916 97.78C622.367 96.6839 622.053 95.4847 621.996 94.2599C621.886 93.2599 621.806 92.2599 621.746 91.2599C621.686 90.2599 621.686 89.2599 621.676 88.2599C621.666 87.2599 621.676 86.2599 621.676 85.2599C621.676 84.2599 621.676 83.13 621.726 82.06C621.776 80.99 621.866 80.14 621.936 79.17C622.006 78.2 622.096 77.17 622.226 76.17C622.306 75.48 622.386 74.79 622.526 74.11C622.627 73.6038 622.754 73.1031 622.906 72.61C623.215 71.2895 623.912 70.0915 624.906 69.17C625.22 68.9062 625.554 68.6687 625.906 68.4599C626.264 68.2543 626.639 68.0803 627.026 67.94C627.673 67.7183 628.345 67.5772 629.026 67.52C629.974 67.425 630.929 67.425 631.876 67.52C632.946 67.59 633.996 67.73 635.056 67.88L637.246 68.17C638.466 68.32 639.696 68.4499 640.906 68.6499C641.389 68.7406 641.866 68.8575 642.336 69C642.786 69.1396 643.227 69.3066 643.656 69.5C644.088 69.7112 644.491 69.9767 644.856 70.2899C645.336 70.6726 645.76 71.1203 646.116 71.6199L646.236 71.81L646.326 71.95C646.572 72.3738 646.785 72.815 646.966 73.27C647.467 74.3899 647.726 75.603 647.726 76.83C647.85 77.05 647.915 77.2977 647.916 77.55V77.77C647.986 78.28 648.046 78.77 648.076 79.31C647.996 79.58 647.996 79.83 647.996 80.08ZM643.866 77.34C643.866 77.19 643.866 77.0399 643.786 76.8999C643.708 76.5604 643.608 76.2264 643.486 75.8999C643.264 75.4004 643.003 74.9189 642.706 74.4599L642.596 74.31C642.504 74.2026 642.404 74.1023 642.296 74.0099C642.096 73.8714 641.885 73.7478 641.666 73.64C641.012 73.4385 640.343 73.2848 639.666 73.1799C637.836 72.9599 635.996 72.81 634.156 72.59C633.156 72.47 632.156 72.3799 631.086 72.3199C630.287 72.27 629.486 72.27 628.686 72.3199C628.462 72.3648 628.242 72.425 628.026 72.5C627.88 72.5679 627.739 72.6482 627.606 72.74L627.496 72.8499C627.358 73.0664 627.231 73.2901 627.116 73.52C626.884 74.1229 626.694 74.741 626.546 75.3699C626.386 76.0499 626.296 76.7399 626.186 77.3699C626.086 78.2099 625.996 79.05 625.886 79.88C625.756 80.88 625.676 81.95 625.616 82.99C625.506 85.04 625.486 87.1 625.456 89.16C625.418 91.0337 625.505 92.9078 625.716 94.77C625.772 95.1097 625.855 95.4442 625.966 95.77C626.019 95.8775 626.079 95.9811 626.146 96.08L626.296 96.2299C626.615 96.4353 626.95 96.6159 627.296 96.77C628.23 97.0663 629.187 97.287 630.156 97.4299C630.776 97.4999 631.396 97.5599 632.016 97.5999C632.636 97.6399 633.366 97.7399 634.016 97.7899C634.666 97.8399 635.426 97.8499 636.136 97.7899C636.824 97.7882 637.512 97.7515 638.196 97.6799C638.87 97.6018 639.538 97.4815 640.196 97.3199C640.873 97.1627 641.541 96.9691 642.196 96.74C642.375 96.66 642.548 96.5698 642.716 96.47L642.776 96.3999C642.913 96.1912 643.037 95.9741 643.146 95.75C643.317 95.2964 643.444 94.8276 643.526 94.3499C643.596 93.6199 643.606 92.8799 643.666 92.1499C643.726 91.4199 643.766 90.4499 643.826 89.5999C643.886 88.7499 643.986 87.5999 644.026 86.5999C644.066 85.5999 644.116 84.69 644.176 83.74C644.176 83.58 644.176 83.43 644.176 83.27C644.116 81.4 644.076 79.36 643.866 77.34Z" fill="#4D4962"/>
</svg>
